<svg class="lds-gear" width="200px"  height="200px"  xmlns="http://www.w3.org/2000/svg" xmlns:xlink="http://www.w3.org/1999/xlink" viewBox="0 0 100 100" preserveAspectRatio="xMidYMid" style="background: rgb(255, 255, 255);"><g transform="translate(50 50)">
<g transform="rotate(314.787)">
<animateTransform attributeName="transform" type="rotate" values="0;360" keyTimes="0;1" dur="3.5s" repeatCount="indefinite"></animateTransform><path d="M31.22498999199199 -7 L38.22498999199199 -7 L38.22498999199199 7 L31.22498999199199 7 A32 32 0 0 1 29.376044318756488 12.690469659648327 L29.376044318756488 12.690469659648327 L35.03916327938112 16.80496642569564 L26.810169747286494 28.131204346944905 L21.14705078666186 24.016707580897595 A32 32 0 0 1 16.30644817077925 27.533611242510307 L16.30644817077925 27.533611242510307 L18.469567131403885 34.19100685657638 L5.15477590327174 38.517244777825645 L2.991656942647108 31.85984916375957 A32 32 0 0 1 -2.991656942647104 31.85984916375957 L-2.991656942647104 31.85984916375957 L-5.1547759032717355 38.517244777825645 L-18.46956713140389 34.19100685657638 L-16.306448170779255 27.533611242510304 A32 32 0 0 1 -21.147050786661858 24.0167075808976 L-21.147050786661858 24.0167075808976 L-26.810169747286487 28.131204346944912 L-35.03916327938112 16.80496642569564 L-29.376044318756488 12.690469659648327 A32 32 0 0 1 -31.22498999199199 7.000000000000009 L-31.22498999199199 7.000000000000009 L-38.22498999199199 7.00000000000001 L-38.22498999199199 -7 L-31.22498999199199 -7.000000000000001 A32 32 0 0 1 -29.37604431875649 -12.69046965964832 L-29.37604431875649 -12.69046965964832 L-35.03916327938113 -16.804966425695632 L-26.810169747286494 -28.1312043469449 L-21.14705078666186 -24.01670758089759 A32 32 0 0 1 -16.30644817077925 -27.533611242510307 L-16.30644817077925 -27.533611242510307 L-18.469567131403885 -34.19100685657638 L-5.1547759032717515 -38.517244777825645 L-2.9916569426471185 -31.85984916375957 A32 32 0 0 1 2.991656942647107 -31.85984916375957 L2.991656942647107 -31.85984916375957 L5.154775903271737 -38.517244777825645 L18.46956713140387 -34.19100685657639 L16.30644817077924 -27.533611242510315 A32 32 0 0 1 21.147050786661865 -24.01670758089759 L21.147050786661865 -24.01670758089759 L26.810169747286494 -28.131204346944905 L35.039163279381114 -16.804966425695657 L29.37604431875648 -12.690469659648343 A32 32 0 0 1 31.22498999199199 -6.999999999999998 M0 -12A12 12 0 1 0 0 12 A12 12 0 1 0 0 -12" fill="#c4d13b"></path></g></g></svg>